<?xml version="1.0" encoding="utf-8"?>
<!-- Generator: Adobe Illustrator 25.1.0, SVG Export Plug-In . SVG Version: 6.00 Build 0)  -->
<svg version="1.1"
	 id="SVGRoot" inkscape:export-filename="D:\Study\CSE\1500 - Web and Database Technologies\bachelormind\bachelormind splash.png" inkscape:export-xdpi="512" inkscape:export-ydpi="512" inkscape:version="0.92.4 (5da689c313, 2019-01-14)" sodipodi:docname="bachelormind splash.svg" xmlns:cc="http://creativecommons.org/ns#" xmlns:dc="http://purl.org/dc/elements/1.1/" xmlns:inkscape="http://www.inkscape.org/namespaces/inkscape" xmlns:rdf="http://www.w3.org/1999/02/22-rdf-syntax-ns#" xmlns:sodipodi="http://sodipodi.sourceforge.net/DTD/sodipodi-0.dtd" xmlns:svg="http://www.w3.org/2000/svg"
	 xmlns="http://www.w3.org/2000/svg" xmlns:xlink="http://www.w3.org/1999/xlink" x="0px" y="0px" viewBox="0 0 1920 1080"
	 style="enable-background:new 0 0 1920 1080;" xml:space="preserve">
<style type="text/css">
	.st0{fill:#DFF1F8;}
	.st1{fill:#F0F0F0;stroke:#000000;stroke-width:0.3633;stroke-linecap:round;stroke-linejoin:round;}
	.st2{fill:#2DBC46;stroke:#000000;}
	.st3{fill:#E24B4B;}
	.st4{fill:#E6E6E6;}
	.st5{fill:#C13A3A;}
	.st6{fill:#333333;}
	.st7{fill:#4D4D4D;}
	.st8{fill:#808080;}
	.st9{fill:#666666;}
	.st10{fill:#EA7168;stroke:#513C25;stroke-width:0.1495;stroke-linejoin:round;stroke-miterlimit:10;}
	.st11{fill:#E2E4E8;}
	.st12{fill:#FFFFFF;stroke:#000000;stroke-width:0.1004;stroke-miterlimit:10;}
	.st13{fill:#8E4D4D;}
	.st14{fill:#6E472A;}
	.st15{fill:#83A03A;}
	.st16{fill:#A0BF55;}
	.st17{fill:#384A5B;}
	.st18{fill:#775A37;}
	.st19{fill:#305489;stroke:#513C25;stroke-width:2.0262;stroke-linejoin:round;stroke-miterlimit:10;}
	.st20{fill:#934A22;}
	.st21{fill:#662D10;}
	.st22{fill:none;stroke:#000000;stroke-width:1.3601;stroke-miterlimit:10;}
	.st23{fill:none;stroke:#000000;stroke-width:1.3601;stroke-linecap:square;stroke-miterlimit:10;}
	.st24{fill:#825F30;}
</style>
<defs>
	
		<inkscape:path-effect  apply_no_weight="true" apply_with_weight="true" effect="bspline" helper_size="0" id="path-effect4993" is_visible="true" only_selected="false" steps="2" weight="33.333333">
		</inkscape:path-effect>
</defs>
<sodipodi:namedview  bordercolor="#666666" borderopacity="1.0" id="base" inkscape:current-layer="layer3" inkscape:cx="771.12568" inkscape:cy="395.89664" inkscape:document-units="px" inkscape:pagecheckerboard="false" inkscape:pageopacity="1" inkscape:pageshadow="2" inkscape:window-height="1526" inkscape:window-maximized="1" inkscape:window-width="2880" inkscape:window-x="-11" inkscape:window-y="538" inkscape:zoom="0.7" pagecolor="#c7faff" showgrid="false">
	</sodipodi:namedview>
<g id="layer3" inkscape:groupmode="layer" inkscape:label="background colour 1">
	<rect id="rect10523" x="-141.8" y="-87.6" class="st0" width="2597.1" height="1449.6"/>
	<g id="_x2601__xFE0F__1_-6-1" transform="matrix(3.6916825,0,0,2.7765292,495.89751,321.61225)">
		<path id="path3496-1-5" inkscape:connector-curvature="0" class="st1" d="M14.9-12.6c0,0.4-0.4,0.8-0.8,0.8C9-11.3,5-6.2,5,0
			c0,6.6,4.5,11.9,10.2,11.9h38.7C60,11.9,65,6.2,65-0.7c0-6.6-4.6-12.1-10.4-12.5c-0.4,0-0.8-0.3-0.9-0.8
			c-1.3-6.7-7.3-11.7-14.3-11.7c-4.6,0-8.7,2.1-11.3,5.4c-0.3,0.4-0.8,0.5-1.1,0.4c-1-0.4-2.1-0.6-3.3-0.6
			C19.1-20.6,15.3-17.1,14.9-12.6L14.9-12.6z"/>
	</g>
</g>
<g id="layer2" inkscape:groupmode="layer" inkscape:label="background colour">
	
		<path id="path4991" inkscape:connector-curvature="0" inkscape:original-d="m -68.690373,977.97459 c 3.031458,-0.001 6.061915,-0.001 9.091373,0 83.815996,10.4338 167.68633,20.87549 251.52798,31.31471 88.89442,-8.7556 177.78785,-17.51029 266.68028,-26.26395 137.04503,-54.21252 274.08906,-108.42404 411.13208,-162.63456 77.1093,53.87381 154.58116,108.00266 231.32486,161.62444 95.5131,-88.14014 191.93,-177.11439 287.8936,-265.67014 73.7422,-18.85719 147.4832,-37.71335 221.2234,-56.56855 58.9266,10.77397 117.852,21.54891 176.7766,32.32488 69.3649,-29.63216 138.7285,-59.26322 208.0915,-88.89342 84.8541,111.78947 169.7066,223.57934 254.5585,335.37064 12.4596,22.22237 24.918,44.44561 37.3756,66.67006 -60.2717,-22.22445 -120.5438,-44.44766 -180.8173,-66.67006 1.3478,118.85876 2.6947,237.72156 4.0406,356.58386 -727.9884,-15.1534 -1455.96557,-30.3056 -2183.949836,-45.4569 1.68459,-90.5781 3.368175,-181.155 5.050763,-271.73101 z" inkscape:path-effect="#path-effect4993" sodipodi:nodetypes="cccccccccccccccc" class="st2" d="
		M-71,1022.3c2.4-45.3,5.4-45.3,48.8-40.1s132-190.7,218.4-189.9c86.4,0.8,174.4,96,273.8,33.8c117-73.1,278.5-63.3,381.5-21.5
		c98.5,7.7,198.5,78.8,284.6,61.5s153.8-62.3,238.7-116c84.9-53.7,158.6-72.6,224.9-76.6c66.3-4,125.3,6.7,189.4-2.7
		c64.1-9.4,133.5-39.1,210.6,2s162,152.9,210.6,219.9s61.1,89.2,37.2,89.2s-84.2-22.2-113.6,26.1c-29.5,48.3-28.1,167.2-391.4,219
		c-363.3,51.9-1091.3,36.7-1454.4-16.2S-73.4,1067.5-71,1022.3L-71,1022.3z"/>
	<g id="g4053" transform="matrix(0.07378379,0,0,0.07378379,1515.0399,623.66943)">
		<path id="path3934" inkscape:connector-curvature="0" class="st3" d="M602,398.2c0,0-41,46.9-86.2,174.4
			c-49.4,139.3-49.4,217.9-49.4,217.9h67.8L602,398.2z"/>
		<path id="path3936" inkscape:connector-curvature="0" class="st3" d="M1464.1,823.7H447.5l105-288.5h768
			c79.3,0,143.5,68,143.5,151.9L1464.1,823.7L1464.1,823.7z"/>
		<path id="path3938" inkscape:connector-curvature="0" class="st4" d="M579.8,824.5H445.6c-11.7,0-21.2-9.5-21.2-21.2v-14.5
			c0-11.7,9.5-21.2,21.2-21.2h134.2V824.5z"/>
		<rect id="rect3940" x="752.6" y="784.8" class="st5" width="396.8" height="38.7"/>
		<path id="path3942" inkscape:connector-curvature="0" class="st4" d="M1307.6,824.5h168c11.7,0,21.2-9.5,21.2-21.2v-14.5
			c0-11.7-9.5-21.2-21.2-21.2h-168V824.5z"/>
		<path id="path3944" inkscape:connector-curvature="0" class="st6" d="M666.2,717.8c-58.4,0-105.7,47.3-105.7,105.7h211.4
			C771.9,765.1,724.6,717.8,666.2,717.8z"/>
		<path id="path3946" inkscape:connector-curvature="0" class="st6" d="M1446.8,840.8H471.7c-9.6,0-17.3-7.7-17.3-17.3l0,0h1009.7
			l0,0C1464.1,833,1456.3,840.8,1446.8,840.8z"/>
		<circle id="circle3948" class="st7" cx="666.2" cy="823.5" r="86.4"/>
		<circle id="circle3950" class="st8" cx="666.2" cy="823.5" r="47.2"/>
		<path id="path3952" inkscape:connector-curvature="0" class="st9" d="M629,833.5c0-26.1,21.1-47.2,47.2-47.2
			c10.5,0,20.2,3.4,28,9.2c-8.6-11.7-22.4-19.2-38-19.2c-26.1,0-47.2,21.1-47.2,47.2c0,15.6,7.6,29.4,19.2,38
			C632.4,853.7,629,844,629,833.5z"/>
		<rect id="rect3954" x="1221.8" y="584.4" class="st5" width="18.7" height="206.1"/>
		<path id="path3956" inkscape:connector-curvature="0" class="st6" d="M1235.8,717.8c-58.4,0-105.7,47.3-105.7,105.7h211.4
			C1341.5,765.1,1294.1,717.8,1235.8,717.8z"/>
		<circle id="circle3958" class="st7" cx="1235.8" cy="823.5" r="86.4"/>
		<circle id="circle3960" class="st8" cx="1235.8" cy="823.5" r="47.2"/>
		<path id="path3962" inkscape:connector-curvature="0" class="st9" d="M1198.5,833.5c0-26.1,21.1-47.2,47.2-47.2
			c10.5,0,20.2,3.4,28,9.2c-8.6-11.7-22.4-19.2-38-19.2c-26.1,0-47.2,21.1-47.2,47.2c0,15.6,7.6,29.4,19.2,38
			C1202,853.7,1198.5,844,1198.5,833.5z"/>
		<path id="path3964" inkscape:connector-curvature="0" class="st10" d="M1396.2,584.4H546.4l14.1-35.2H1311
			C1343,549.2,1377.4,562.4,1396.2,584.4z"/>
		<path id="path3966" inkscape:connector-curvature="0" class="st3" d="M1273.8,548.9H552.5l0,0c0-143.9,116.6-260.5,260.5-260.5
			h302.8c13.9,0,26.7,7.8,33.1,20.1L1273.8,548.9z"/>
		<path id="path3968" inkscape:connector-curvature="0" class="st11" d="M597.5,515c-7.4,0-12.2-7-9-13
			c13-24.6,23.7-55.8,84.6-117.6c44.7-45.4,91.4-56.8,116.4-64.4c6.5-1.9,13.2,2.5,13.2,8.7v177.2c0,5-4.5,9.1-10,9.1H597.5z"/>
		<path id="path3970" inkscape:connector-curvature="0" class="st5" d="M930.2,640.5h-50c-5.4,0-9.8-4.4-9.8-9.8l0,0
			c0-5.4,4.4-9.8,9.8-9.8h50c5.4,0,9.8,4.4,9.8,9.8l0,0C940,636.2,935.6,640.5,930.2,640.5z"/>
		<path id="path3972" inkscape:connector-curvature="0" class="st11" d="M1190.8,515H858.2c-8,0-14.5-6.5-14.5-14.5V334
			c0-8,6.5-14.5,14.5-14.5h247.2c5.4,0,10.4,3,12.9,7.9l85.4,166.5C1208.6,503.5,1201.6,515,1190.8,515z"/>
		<rect id="rect3974" x="825" y="584.4" class="st5" width="18.7" height="206.1"/>
		<g id="g3980">
			<path id="path3976" inkscape:connector-curvature="0" class="st12" d="M803,388v-59.4c0-1.1-0.4-2.1-0.8-3.1L591.1,497.1
				c-0.8,1.6-1.7,3.3-2.5,4.8c-3.2,6,1.6,13.1,9,13.1h49L803,388z"/>
			<polygon id="polygon3978" class="st12" points="668.4,515 690.3,515 803,423.6 803,405.8 			"/>
		</g>
		<g id="g3988">
			<path id="path3982" inkscape:connector-curvature="0" class="st12" d="M803,388v-59.4c0-1.1-0.4-2.1-0.8-3.1L591.1,497.1
				c-0.8,1.6-1.7,3.3-2.5,4.8c-3.2,6,1.6,13.1,9,13.1h49L803,388z"/>
			<polygon id="polygon3984" class="st12" points="900,515 957.3,515 1137,363.6 1115,323 			"/>
			<polygon id="polygon3986" class="st12" points="1035,515 1057.3,515 1167,423.6 1158.4,405 			"/>
		</g>
		<path id="path3990" inkscape:connector-curvature="0" class="st12" d="M1392.8,608.6c-2.9,0-5.7,0.6-8.3,1.7v68.1
			c2.6,1.1,5.4,1.7,8.3,1.7c15,0,27.2-16,27.2-35.7C1420,624.6,1407.8,608.6,1392.8,608.6z"/>
		<rect id="rect3992" x="1360.8" y="601.6" class="st5" width="19.9" height="85.4"/>
		<path id="path3994" inkscape:connector-curvature="0" class="st13" d="M1384.2,687.1h-3.6v-85.4h3.6c5.4,0,9.7,4.3,9.7,9.7v66
			C1393.9,682.7,1389.6,687.1,1384.2,687.1z"/>
		<path id="path3996" inkscape:connector-curvature="0" class="st10" d="M1412.3,733.2h-43.8c-4.3,0-7.7-3.5-7.7-7.7l0,0
			c0-4.3,3.5-7.7,7.7-7.7h43.8c4.3,0,7.7,3.5,7.7,7.7l0,0C1420,729.8,1416.5,733.2,1412.3,733.2z"/>
	</g>
</g>
<g id="layer1" inkscape:groupmode="layer" inkscape:label="Layer 1">
	<g id="g10394" transform="rotate(-3.8,4743.1189,17355.422)">
		<path id="path9807" inkscape:connector-curvature="0" class="st14" d="M1951,584.2c0,0-7.5-1.5-13.3-1.4c-5.6,0.1-12,1.5-12,1.5
			s4.7-4.2,5.2-5.5c2.8-7-1.5-28.4-1.5-28.4l-12.2-7.4l-6-15.9h3l6,14.1l12.2,5.3l-2.7-12.2v-9.2h2.4l0.3,9.5l5.7,11.9l14.5-19.5
			l2.2,2.5l-12.5,17l12.6,1.1l10.9-10.7l1.5,1.8l-10.7,12.5l-13.7,1.2c0,0-1.8,23.1,0.4,25.8C1945.4,581,1951,584.2,1951,584.2
			L1951,584.2z"/>
		<path id="path9809" inkscape:connector-curvature="0" class="st15" d="M1985.8,536.5c0,8.7-8.3,14.6-17,14.6
			c-5.9,0-7.5-4.9-10.2-9.6c-2.2,1.1-4.8,2.3-7.4,1.8c-5.9-1.1-8.3-2.6-13.9-7.6c-2.8,3.2-6.8,5.3-11.4,5.3c-5.2,0-9.8-2.6-12.5-6.5
			c-3.9,8.2-3.5,9.8-13,11.6c-7.1,1.4-10.2-4.5-13.2-13c-2.3-6.9,5.8-13.1,13.1-13.2c1,0,2.1,0.1,3,0.3c-3-3-4.9-7.2-4.9-11.8
			c0-9.3,5.2-16.7,14.5-16.7c1.2,0,4.6,0,5.7,0.2c-1-2-1.5-4.3-1.5-6.7c0-8.7,4.8-15.6,13.4-15.6c6,0,13.4,3.1,16.1,8
			c1.1-0.3,2.3-0.4,3.5-0.4c8.6,0,15.5,5.4,15.5,14c0,2.5-0.5,6.3-1.5,8.4c1.3-0.5,2.6-0.7,4.1-0.7c6.5,0,9.9,5,9.9,11.5
			c0,3.2,0.7,6.4-1.3,8.5C1983.2,520.7,1985.8,529.5,1985.8,536.5L1985.8,536.5z"/>
		<path id="path9811" inkscape:connector-curvature="0" class="st16" d="M1906.2,537.1c0,5.7,4.6,10.4,10.4,10.5
			c4.3,0,9.1-1.3,10.7-5.1c2,1.7,6.4,2.5,9.2,2.6c3.9,0,5.6-1.7,7.7-4.7c1,4.7,5.2,8.2,10.1,8.2c0.8,0,1.6-0.1,2.4-0.3
			c1.2,3.2,4.3,3.6,8,3.6c4.7,0,8.6-3.8,8.6-8.5c0-4.5-3.4-6.2-7.9-6.6c2.9-1.9,3.4-6.1,3.4-9.8c0-5.1-2.1-8.6-6.9-9.7
			c0.1-0.7,1.3-3.3,1.3-4c0-9.1-8.5-14.7-17.5-14.7c-0.3,0-0.6,0-0.8,0c-1.9-3.1-7.5-4.9-11.3-4.9c-5.9,0-8.4,4.5-8.4,10.3
			c0,1.7,0.4,3.4,1.1,4.8c-0.8-0.2-4.4,0-5.3,0c-6,0-8.3,4.5-8.3,10.6c0,3.5,1.6,6.5,4.1,8.6
			C1911.6,528.3,1906.3,531.6,1906.2,537.1L1906.2,537.1z M1946.5,531.4c-0.1,0.1-0.1,0.1-0.2,0.2c0-0.1,0-0.1,0-0.2
			C1946.4,531.4,1946.5,531.4,1946.5,531.4z"/>
	</g>
	<g id="g9565" transform="rotate(0.5,-34543.063,186819.75)">
		<polygon id="polygon9315" class="st17" points="155.8,347.6 160.9,395.4 65.6,395.4 70.7,347.6 		"/>
		<path id="path9317" inkscape:connector-curvature="0" class="st18" d="M158.6,347.6l-90.7,0c-1.2,0-2.1-1.1-1.9-2.2
			c0.8-4.5,2.5-14.6,2.8-18.6c1.5-17.2,5.3-77.9,5.3-77.9l78.3,0c0,0,3.8,60.7,5.3,77.9c0.4,4,2,14.1,2.8,18.6
			C160.7,346.5,159.8,347.6,158.6,347.6L158.6,347.6z"/>
		<path id="path9319" inkscape:connector-curvature="0" class="st6" d="M158.1,249.7l-89.7,0c-1.4,0-2.3-1.4-1.7-2.6
			c3.9-8.7,18.3-35.7,46.5-35.7s42.6,27.1,46.5,35.7C160.3,248.3,159.4,249.7,158.1,249.7z"/>
		
			<rect id="rect9321" x="82.9" y="308.9" transform="matrix(2.999036e-06 1 -1 2.999036e-06 405.1998 224.0988)" class="st19" width="15.3" height="11.5"/>
		
			<rect id="rect9323" x="124.9" y="268.8" transform="matrix(2.999036e-06 1 -1 2.999036e-06 407.0996 141.999)" class="st19" width="15.3" height="11.5"/>
		<path id="path9325" inkscape:connector-curvature="0" class="st20" d="M120,395.4h-15.2l0-21.3c0-1.4,1.2-2.6,2.6-2.6h10
			c1.4,0,2.6,1.2,2.6,2.6L120,395.4z"/>
		<circle id="circle9327" class="st21" cx="107.2" cy="384.3" r="0.9"/>
		<g id="g9563">
			<g id="g9385">
				<g id="g9379">
					<line id="line9329" class="st22" x1="19.4" y1="321.4" x2="7.1" y2="308.2"/>
					<line id="line9331" class="st22" x1="23.8" y1="317.3" x2="11.5" y2="304.1"/>
					<line id="line9333" class="st22" x1="28.2" y1="313.1" x2="16" y2="300"/>
					<line id="line9335" class="st22" x1="32.7" y1="309" x2="20.4" y2="295.9"/>
					<line id="line9337" class="st22" x1="37.1" y1="304.9" x2="24.8" y2="291.8"/>
					<line id="line9339" class="st22" x1="41.5" y1="300.8" x2="29.2" y2="287.6"/>
					<line id="line9341" class="st22" x1="45.9" y1="296.7" x2="33.6" y2="283.5"/>
					<line id="line9343" class="st22" x1="50.3" y1="292.5" x2="38" y2="279.4"/>
					<line id="line9345" class="st22" x1="54.7" y1="288.4" x2="42.4" y2="275.3"/>
					<line id="line9347" class="st22" x1="59.1" y1="284.3" x2="46.8" y2="271.2"/>
					<line id="line9349" class="st22" x1="63.5" y1="280.2" x2="51.2" y2="267"/>
					<line id="line9351" class="st22" x1="67.9" y1="276" x2="55.6" y2="262.9"/>
					<line id="line9353" class="st22" x1="72.3" y1="271.9" x2="60" y2="258.8"/>
					<line id="line9355" class="st22" x1="76.7" y1="267.8" x2="64.4" y2="254.7"/>
					<line id="line9357" class="st22" x1="81.1" y1="263.7" x2="68.8" y2="250.5"/>
					<line id="line9359" class="st22" x1="98.8" y1="247.2" x2="86.5" y2="234.1"/>
					<line id="line9361" class="st22" x1="103.2" y1="243.1" x2="90.9" y2="229.9"/>
					<line id="line9363" class="st22" x1="107.6" y1="239" x2="100" y2="230.9"/>
					<line id="line9365" class="st22" x1="112" y1="234.8" x2="104.4" y2="226.8"/>
					<line id="line9367" class="st23" x1="115.9" y1="230.2" x2="108.8" y2="222.6"/>
					<line id="line9369" class="st22" x1="85.5" y1="259.6" x2="73.2" y2="246.4"/>
					<line id="line9371" class="st22" x1="89.9" y1="255.4" x2="77.6" y2="242.3"/>
					<line id="line9373" class="st22" x1="94.3" y1="251.3" x2="82.1" y2="238.2"/>
					<line id="line9375" class="st23" x1="7.1" y1="308.3" x2="90.9" y2="229.9"/>
					<line id="line9377" class="st22" x1="11.9" y1="313.3" x2="108.8" y2="222.6"/>
				</g>
				<g id="g9383">
					
						<rect id="rect9381" x="0.9" y="272" transform="matrix(-0.7303 0.6831 -0.6831 -0.7303 306.2325 431.2997)" width="134.1" height="8.2"/>
				</g>
			</g>
			<g id="g9443">
				<g id="g9437">
					<line id="line9387" class="st22" x1="207.5" y1="333.2" x2="194.4" y2="345.4"/>
					<line id="line9389" class="st22" x1="203.4" y1="328.8" x2="190.3" y2="341"/>
					<line id="line9391" class="st22" x1="199.3" y1="324.3" x2="186.2" y2="336.6"/>
					<line id="line9393" class="st22" x1="195.2" y1="319.9" x2="182" y2="332.2"/>
					<line id="line9395" class="st22" x1="191.1" y1="315.5" x2="177.9" y2="327.8"/>
					<line id="line9397" class="st22" x1="186.9" y1="311.1" x2="173.8" y2="323.4"/>
					<line id="line9399" class="st22" x1="182.8" y1="306.7" x2="169.7" y2="319"/>
					<line id="line9401" class="st22" x1="178.7" y1="302.3" x2="165.5" y2="314.6"/>
					<line id="line9403" class="st22" x1="174.6" y1="297.9" x2="161.4" y2="310.2"/>
					<line id="line9405" class="st22" x1="170.4" y1="293.5" x2="157.3" y2="305.8"/>
					<line id="line9407" class="st22" x1="166.3" y1="289.1" x2="153.2" y2="301.4"/>
					<line id="line9409" class="st22" x1="162.2" y1="284.7" x2="149.1" y2="297"/>
					<line id="line9411" class="st22" x1="158.1" y1="280.3" x2="144.9" y2="292.6"/>
					<line id="line9413" class="st22" x1="154" y1="275.9" x2="140.8" y2="288.2"/>
					<line id="line9415" class="st22" x1="149.8" y1="271.5" x2="136.7" y2="283.8"/>
					<line id="line9417" class="st22" x1="133.3" y1="253.8" x2="120.2" y2="266.1"/>
					<line id="line9419" class="st22" x1="129.2" y1="249.4" x2="116.1" y2="261.7"/>
					<line id="line9421" class="st22" x1="125.1" y1="245" x2="117" y2="252.6"/>
					<line id="line9423" class="st22" x1="121" y1="240.6" x2="112.9" y2="248.2"/>
					<line id="line9425" class="st23" x1="116.4" y1="236.7" x2="108.8" y2="243.8"/>
					<line id="line9427" class="st22" x1="145.7" y1="267.1" x2="132.6" y2="279.4"/>
					<line id="line9429" class="st22" x1="141.6" y1="262.7" x2="128.5" y2="274.9"/>
					<line id="line9431" class="st22" x1="137.5" y1="258.2" x2="124.3" y2="270.5"/>
					<line id="line9433" class="st23" x1="194.4" y1="345.5" x2="116.1" y2="261.7"/>
					<line id="line9435" class="st22" x1="199.5" y1="340.7" x2="108.8" y2="243.8"/>
				</g>
				<g id="g9441">
					
						<rect id="rect9439" x="158.1" y="217.6" transform="matrix(-0.7303 0.6831 -0.6831 -0.7303 475.055 381.7151)" width="8.2" height="134.1"/>
				</g>
			</g>
			<g id="g9501">
				<g id="g9495">
					<line id="line9445" class="st22" x1="214.4" y1="139.2" x2="226.7" y2="152.3"/>
					<line id="line9447" class="st22" x1="210" y1="143.3" x2="222.3" y2="156.5"/>
					<line id="line9449" class="st22" x1="205.6" y1="147.4" x2="217.9" y2="160.6"/>
					<line id="line9451" class="st22" x1="201.2" y1="151.6" x2="213.5" y2="164.7"/>
					<line id="line9453" class="st22" x1="196.8" y1="155.7" x2="209.1" y2="168.8"/>
					<line id="line9455" class="st22" x1="192.4" y1="159.8" x2="204.6" y2="172.9"/>
					<line id="line9457" class="st22" x1="188" y1="163.9" x2="200.2" y2="177.1"/>
					<line id="line9459" class="st22" x1="183.5" y1="168" x2="195.8" y2="181.2"/>
					<line id="line9461" class="st22" x1="179.1" y1="172.2" x2="191.4" y2="185.3"/>
					<line id="line9463" class="st22" x1="174.7" y1="176.3" x2="187" y2="189.4"/>
					<line id="line9465" class="st22" x1="170.3" y1="180.4" x2="182.6" y2="193.6"/>
					<line id="line9467" class="st22" x1="165.9" y1="184.5" x2="178.2" y2="197.7"/>
					<line id="line9469" class="st22" x1="161.5" y1="188.7" x2="173.8" y2="201.8"/>
					<line id="line9471" class="st22" x1="157.1" y1="192.8" x2="169.4" y2="205.9"/>
					<line id="line9473" class="st22" x1="152.7" y1="196.9" x2="165" y2="210"/>
					<line id="line9475" class="st22" x1="135.1" y1="213.4" x2="147.4" y2="226.5"/>
					<line id="line9477" class="st22" x1="130.7" y1="217.5" x2="143" y2="230.7"/>
					<line id="line9479" class="st22" x1="126.3" y1="221.6" x2="133.8" y2="229.7"/>
					<line id="line9481" class="st22" x1="121.9" y1="225.8" x2="129.4" y2="233.8"/>
					<line id="line9483" class="st23" x1="117.9" y1="230.4" x2="125" y2="237.9"/>
					<line id="line9485" class="st22" x1="148.3" y1="201" x2="160.6" y2="214.2"/>
					<line id="line9487" class="st22" x1="143.9" y1="205.1" x2="156.2" y2="218.3"/>
					<line id="line9489" class="st22" x1="139.5" y1="209.3" x2="151.8" y2="222.4"/>
					<line id="line9491" class="st23" x1="226.7" y1="152.3" x2="143" y2="230.7"/>
					<line id="line9493" class="st22" x1="222" y1="147.3" x2="125" y2="237.9"/>
				</g>
				<g id="g9499">
					
						<rect id="rect9497" x="98.9" y="180.5" transform="matrix(-0.7303 0.6831 -0.6831 -0.7303 413.3009 206.0474)" width="134.1" height="8.2"/>
				</g>
			</g>
			<g id="g9559">
				<g id="g9553">
					<line id="line9503" class="st22" x1="25.3" y1="138.3" x2="38.4" y2="126"/>
					<line id="line9505" class="st22" x1="29.4" y1="142.7" x2="42.5" y2="130.4"/>
					<line id="line9507" class="st22" x1="33.5" y1="147.1" x2="46.6" y2="134.8"/>
					<line id="line9509" class="st22" x1="37.6" y1="151.5" x2="50.8" y2="139.2"/>
					<line id="line9511" class="st22" x1="41.7" y1="155.9" x2="54.9" y2="143.6"/>
					<line id="line9513" class="st22" x1="45.9" y1="160.3" x2="59" y2="148"/>
					<line id="line9515" class="st22" x1="50" y1="164.7" x2="63.1" y2="152.4"/>
					<line id="line9517" class="st22" x1="54.1" y1="169.1" x2="67.3" y2="156.8"/>
					<line id="line9519" class="st22" x1="58.2" y1="173.5" x2="71.4" y2="161.2"/>
					<line id="line9521" class="st22" x1="62.4" y1="177.9" x2="75.5" y2="165.7"/>
					<line id="line9523" class="st22" x1="66.5" y1="182.3" x2="79.6" y2="170.1"/>
					<line id="line9525" class="st22" x1="70.6" y1="186.8" x2="83.7" y2="174.5"/>
					<line id="line9527" class="st22" x1="74.7" y1="191.2" x2="87.9" y2="178.9"/>
					<line id="line9529" class="st22" x1="78.8" y1="195.6" x2="92" y2="183.3"/>
					<line id="line9531" class="st22" x1="83" y1="200" x2="96.1" y2="187.7"/>
					<line id="line9533" class="st22" x1="99.5" y1="217.6" x2="112.6" y2="205.3"/>
					<line id="line9535" class="st22" x1="103.6" y1="222" x2="116.7" y2="209.7"/>
					<line id="line9537" class="st22" x1="107.7" y1="226.4" x2="115.8" y2="218.9"/>
					<line id="line9539" class="st22" x1="111.8" y1="230.8" x2="119.9" y2="223.3"/>
					<line id="line9541" class="st23" x1="116.4" y1="234.8" x2="124" y2="227.7"/>
					<line id="line9543" class="st22" x1="87.1" y1="204.4" x2="100.2" y2="192.1"/>
					<line id="line9545" class="st22" x1="91.2" y1="208.8" x2="104.4" y2="196.5"/>
					<line id="line9547" class="st22" x1="95.3" y1="213.2" x2="108.5" y2="200.9"/>
					<line id="line9549" class="st23" x1="38.4" y1="126" x2="116.7" y2="209.7"/>
					<line id="line9551" class="st22" x1="33.3" y1="130.7" x2="124" y2="227.7"/>
				</g>
				<g id="g9557">
					
						<rect id="rect9555" x="66.5" y="119.7" transform="matrix(-0.7303 0.6831 -0.6831 -0.7303 249.708 274.9031)" width="8.2" height="134.1"/>
				</g>
			</g>
			<circle id="circle9561" class="st24" cx="114" cy="233.1" r="7"/>
		</g>
	</g>
	<g id="g10394_1_" transform="rotate(-3.8,4743.1189,17355.422)">
		<path id="path9807_1_" inkscape:connector-curvature="0" class="st14" d="M2132.8,824.4c0,0-7.5-1.5-13.3-1.4
			c-5.6,0.1-12,1.5-12,1.5s4.7-4.2,5.2-5.5c2.8-7-1.5-28.4-1.5-28.4l-12.2-7.4l-6-15.9h3l6,14.1l12.2,5.3l-2.7-12.2v-9.2h2.4
			l0.3,9.5l5.7,11.9l14.5-19.5l2.2,2.5l-12.5,17l12.6,1.1l10.9-10.7l1.5,1.8l-10.7,12.5l-13.7,1.2c0,0-1.8,23.1,0.4,25.8
			C2127.2,821.2,2132.8,824.4,2132.8,824.4L2132.8,824.4z"/>
		<path id="path9809_1_" inkscape:connector-curvature="0" class="st15" d="M2167.6,776.7c0,8.7-8.3,14.6-17,14.6
			c-5.9,0-7.5-4.9-10.2-9.6c-2.2,1.1-4.8,2.3-7.4,1.8c-5.9-1.1-8.3-2.6-13.9-7.6c-2.8,3.2-6.8,5.3-11.4,5.3c-5.2,0-9.8-2.6-12.5-6.5
			c-3.9,8.2-3.5,9.8-13,11.6c-7.1,1.4-10.2-4.5-13.2-13c-2.3-6.9,5.8-13.1,13.1-13.2c1,0,2.1,0.1,3,0.3c-3-3-4.9-7.2-4.9-11.8
			c0-9.3,5.2-16.7,14.5-16.7c1.2,0,4.6,0,5.7,0.2c-1-2-1.5-4.3-1.5-6.7c0-8.7,4.8-15.6,13.4-15.6c6,0,13.4,3.1,16.1,8
			c1.1-0.3,2.3-0.4,3.5-0.4c8.6,0,15.5,5.4,15.5,14c0,2.5-0.5,6.3-1.5,8.4c1.3-0.5,2.6-0.7,4.1-0.7c6.5,0,9.9,5,9.9,11.5
			c0,3.2,0.7,6.4-1.3,8.5C2165,760.9,2167.6,769.7,2167.6,776.7L2167.6,776.7z"/>
		<path id="path9811_1_" inkscape:connector-curvature="0" class="st16" d="M2088,777.3c0,5.7,4.6,10.4,10.4,10.5
			c4.3,0,9.1-1.3,10.7-5.1c2,1.7,6.4,2.5,9.2,2.6c3.9,0,5.6-1.7,7.7-4.7c1,4.7,5.2,8.2,10.1,8.2c0.8,0,1.6-0.1,2.4-0.3
			c1.2,3.2,4.3,3.6,8,3.6c4.7,0,8.6-3.8,8.6-8.5c0-4.5-3.4-6.2-7.9-6.6c2.9-1.9,3.4-6.1,3.4-9.8c0-5.1-2.1-8.6-6.9-9.7
			c0.1-0.7,1.3-3.3,1.3-4c0-9.1-8.5-14.7-17.5-14.7c-0.3,0-0.6,0-0.8,0c-1.9-3.1-7.5-4.9-11.3-4.9c-5.9,0-8.4,4.5-8.4,10.3
			c0,1.7,0.4,3.4,1.1,4.8c-0.8-0.2-4.4,0-5.3,0c-6,0-8.3,4.5-8.3,10.6c0,3.5,1.6,6.5,4.1,8.6C2093.4,768.5,2088.1,771.8,2088,777.3
			L2088,777.3z M2128.3,771.6c-0.1,0.1-0.1,0.1-0.2,0.2c0-0.1,0-0.1,0-0.2C2128.2,771.6,2128.3,771.6,2128.3,771.6z"/>
	</g>
</g>
<g id="g10394_2_" transform="rotate(-3.8,4743.1189,17355.422)">
	<path id="path9807_2_" inkscape:connector-curvature="0" class="st14" d="M2328.3,662.4c0,0-7.5-1.5-13.3-1.4
		c-5.6,0.1-12,1.5-12,1.5s4.7-4.2,5.2-5.5c2.8-7-1.5-28.4-1.5-28.4l-12.2-7.4l-6-15.9h3l6,14.1l12.2,5.3l-2.7-12.2v-9.2h2.4l0.3,9.5
		l5.7,11.9l14.5-19.5l2.2,2.5l-12.5,17l12.6,1.1l10.9-10.7l1.5,1.8l-10.7,12.5l-13.7,1.2c0,0-1.8,23.1,0.4,25.8
		C2322.7,659.2,2328.3,662.4,2328.3,662.4L2328.3,662.4z"/>
	<path id="path9809_2_" inkscape:connector-curvature="0" class="st15" d="M2363.1,614.7c0,8.7-8.3,14.6-17,14.6
		c-5.9,0-7.5-4.9-10.2-9.6c-2.2,1.1-4.8,2.3-7.4,1.8c-5.9-1.1-8.3-2.6-13.9-7.6c-2.8,3.2-6.8,5.3-11.4,5.3c-5.2,0-9.8-2.6-12.5-6.5
		c-3.9,8.2-3.5,9.8-13,11.6c-7.1,1.4-10.2-4.5-13.2-13c-2.3-6.9,5.8-13.1,13.1-13.2c1,0,2.1,0.1,3,0.3c-3-3-4.9-7.2-4.9-11.8
		c0-9.3,5.2-16.7,14.5-16.7c1.2,0,4.6,0,5.7,0.2c-1-2-1.5-4.3-1.5-6.7c0-8.7,4.8-15.6,13.4-15.6c6,0,13.4,3.1,16.1,8
		c1.1-0.3,2.3-0.4,3.5-0.4c8.6,0,15.5,5.4,15.5,14c0,2.5-0.5,6.3-1.5,8.4c1.3-0.5,2.6-0.7,4.1-0.7c6.5,0,9.9,5,9.9,11.5
		c0,3.2,0.7,6.4-1.3,8.5C2360.5,598.9,2363.1,607.7,2363.1,614.7L2363.1,614.7z"/>
	<path id="path9811_2_" inkscape:connector-curvature="0" class="st16" d="M2283.5,615.3c0,5.7,4.6,10.4,10.4,10.5
		c4.3,0,9.1-1.3,10.7-5.1c2,1.7,6.4,2.5,9.2,2.6c3.9,0,5.6-1.7,7.7-4.7c1,4.7,5.2,8.2,10.1,8.2c0.8,0,1.6-0.1,2.4-0.3
		c1.2,3.2,4.3,3.6,8,3.6c4.7,0,8.6-3.8,8.6-8.5c0-4.5-3.4-6.2-7.9-6.6c2.9-1.9,3.4-6.1,3.4-9.8c0-5.1-2.1-8.6-6.9-9.7
		c0.1-0.7,1.3-3.3,1.3-4c0-9.1-8.5-14.7-17.5-14.7c-0.3,0-0.6,0-0.8,0c-1.9-3.1-7.5-4.9-11.3-4.9c-5.9,0-8.4,4.5-8.4,10.3
		c0,1.7,0.4,3.4,1.1,4.8c-0.8-0.2-4.4,0-5.3,0c-6,0-8.3,4.5-8.3,10.6c0,3.5,1.6,6.5,4.1,8.6C2288.9,606.5,2283.6,609.8,2283.5,615.3
		L2283.5,615.3z M2323.8,609.6c-0.1,0.1-0.1,0.1-0.2,0.2c0-0.1,0-0.1,0-0.2C2323.7,609.6,2323.8,609.6,2323.8,609.6z"/>
</g>
<g id="g10394_3_" transform="rotate(-3.8,4743.1189,17355.422)">
	<path id="path9807_3_" inkscape:connector-curvature="0" class="st14" d="M1272,559.6c0,0-7.5-1.5-13.3-1.4c-5.6,0.1-12,1.5-12,1.5
		s4.7-4.2,5.2-5.5c2.8-7-1.5-28.4-1.5-28.4l-12.2-7.4l-6-15.9h3l6,14.1l12.2,5.3l-2.7-12.2v-9.2h2.4l0.3,9.5l5.7,11.9l14.5-19.5
		l2.2,2.5l-12.5,17l12.6,1.1l10.9-10.7l1.5,1.8l-10.7,12.5l-13.7,1.2c0,0-1.8,23.1,0.4,25.8C1266.4,556.4,1272,559.6,1272,559.6
		L1272,559.6z"/>
	<path id="path9809_3_" inkscape:connector-curvature="0" class="st15" d="M1306.8,511.9c0,8.7-8.3,14.6-17,14.6
		c-5.9,0-7.5-4.9-10.2-9.6c-2.2,1.1-4.8,2.3-7.4,1.8c-5.9-1.1-8.3-2.6-13.9-7.6c-2.8,3.2-6.8,5.3-11.4,5.3c-5.2,0-9.8-2.6-12.5-6.5
		c-3.9,8.2-3.5,9.8-13,11.6c-7.1,1.4-10.2-4.5-13.2-13c-2.3-6.9,5.8-13.1,13.1-13.2c1,0,2.1,0.1,3,0.3c-3-3-4.9-7.2-4.9-11.8
		c0-9.3,5.2-16.7,14.5-16.7c1.2,0,4.6,0,5.7,0.2c-1-2-1.5-4.3-1.5-6.7c0-8.7,4.8-15.6,13.4-15.6c6,0,13.4,3.1,16.1,8
		c1.1-0.3,2.3-0.4,3.5-0.4c8.6,0,15.5,5.4,15.5,14c0,2.5-0.5,6.3-1.5,8.4c1.3-0.5,2.6-0.7,4.1-0.7c6.5,0,9.9,5,9.9,11.5
		c0,3.2,0.7,6.4-1.3,8.5C1304.2,496.1,1306.8,504.9,1306.8,511.9L1306.8,511.9z"/>
	<path id="path9811_3_" inkscape:connector-curvature="0" class="st16" d="M1227.2,512.5c0,5.7,4.6,10.4,10.4,10.5
		c4.3,0,9.1-1.3,10.7-5.1c2,1.7,6.4,2.5,9.2,2.6c3.9,0,5.6-1.7,7.7-4.7c1,4.7,5.2,8.2,10.1,8.2c0.8,0,1.6-0.1,2.4-0.3
		c1.2,3.2,4.3,3.6,8,3.6c4.7,0,8.6-3.8,8.6-8.5c0-4.5-3.4-6.2-7.9-6.6c2.9-1.9,3.4-6.1,3.4-9.8c0-5.1-2.1-8.6-6.9-9.7
		c0.1-0.7,1.3-3.3,1.3-4c0-9.1-8.5-14.7-17.5-14.7c-0.3,0-0.6,0-0.8,0c-1.9-3.1-7.5-4.9-11.3-4.9c-5.9,0-8.4,4.5-8.4,10.3
		c0,1.7,0.4,3.4,1.1,4.8c-0.8-0.2-4.4,0-5.3,0c-6,0-8.3,4.5-8.3,10.6c0,3.5,1.6,6.5,4.1,8.6C1232.6,503.7,1227.3,507,1227.2,512.5
		L1227.2,512.5z M1267.5,506.8c-0.1,0.1-0.1,0.1-0.2,0.2c0-0.1,0-0.1,0-0.2C1267.4,506.8,1267.5,506.8,1267.5,506.8z"/>
</g>
</svg>
